<svg width="178" height="31" viewBox="0 0 178 31" fill="none" xmlns="http://www.w3.org/2000/svg">
<g clip-path="url(#clip0_7_3049)">
<path d="M40.6949 29.8378V0.945675C40.6949 0.558211 40.9529 0.344238 41.3414 0.344238H44.142C44.5304 0.344238 44.745 0.558211 44.745 0.945675V16.5107L56.5589 0.688329C56.7734 0.430984 57.0343 0.344238 57.3359 0.344238H60.7829C61.3424 0.344238 61.4729 0.688329 61.1279 1.11917L50.8679 14.1888L62.3339 29.6672C62.6354 30.098 62.4644 30.4421 61.9454 30.4421H58.7129C58.3679 30.4421 58.1534 30.3553 57.936 30.0546L48.453 17.2857L44.745 22.0162V29.8406C44.745 30.2281 44.5304 30.4421 44.142 30.4421H41.3414C40.9529 30.4421 40.6949 30.2281 40.6949 29.8406V29.8378Z" fill="white"/>
<path d="M74.2348 29.8378V0.945675C74.2348 0.558211 74.4928 0.344238 74.8813 0.344238H77.6819C78.0703 0.344238 78.2849 0.558211 78.2849 0.945675V29.8378C78.2849 30.2252 78.0703 30.4392 77.6819 30.4392H74.8813C74.4928 30.4392 74.2348 30.2252 74.2348 29.8378Z" fill="white"/>
<path d="M97.8162 29.8378V3.91238H91.5222C91.1338 3.91238 90.8757 3.6984 90.8757 3.31094V0.945675C90.8757 0.558211 91.1338 0.344238 91.5222 0.344238H108.12C108.508 0.344238 108.723 0.558211 108.723 0.945675V3.31094C108.723 3.6984 108.508 3.91238 108.12 3.91238H101.826V29.8378C101.826 30.2252 101.611 30.4392 101.223 30.4392H98.4221C98.0337 30.4392 97.8191 30.2252 97.8191 29.8378H97.8162Z" fill="white"/>
<path d="M127.002 29.8378V3.91238H120.708C120.319 3.91238 120.061 3.6984 120.061 3.31094V0.945675C120.061 0.558211 120.319 0.344238 120.708 0.344238H137.305C137.694 0.344238 137.908 0.558211 137.908 0.945675V3.31094C137.908 3.6984 137.694 3.91238 137.305 3.91238H131.011V29.8378C131.011 30.2252 130.797 30.4392 130.408 30.4392H127.608C127.219 30.4392 127.005 30.2252 127.005 29.8378H127.002Z" fill="white"/>
<path d="M147.093 15.5217C147.093 6.79218 153.903 0 162.568 0C171.233 0 178 6.79218 178 15.5217C178 24.2512 171.19 31 162.568 31C153.946 31 147.093 24.2078 147.093 15.5217ZM162.568 27.0878C169.033 27.0878 173.947 22.0999 173.947 15.5217C173.947 8.94348 169.033 3.91223 162.568 3.91223C156.103 3.91223 151.186 8.9001 151.186 15.5217C151.186 22.1433 156.1 27.0878 162.568 27.0878Z" fill="white"/>
<path d="M14.1767 26.1279C12.3734 29.19 8.2016 32.4748 5.16912 28.8401C3.20352 26.4835 2.9484 22.4499 2.21782 19.5121C1.04947 14.8162 -1.14806 9.7474 0.73347 4.91277C2.54542 0.263206 7.25068 -1.12183 11.6718 0.919581C12.4256 1.26656 13.2982 2.05884 14.1042 2.11378C15.2957 2.19474 15.9538 1.38222 16.9366 0.922473C20.5605 -0.777742 24.6599 -0.190763 26.9502 3.25304C30.3074 8.29874 27.6141 14.5415 26.3095 19.8243C25.4542 23.2884 24.9962 30.7948 19.9343 30.3958C17.1483 30.176 16.1249 27.9004 14.4898 26.2667C14.3825 26.1597 14.3738 26.0816 14.1767 26.1308V26.1279ZM7.5464 2.13691C5.34597 2.21787 3.5775 3.68677 2.80634 5.6877C1.20023 9.85438 3.23251 14.5936 4.2414 18.6591C4.82992 21.0359 5.33147 25.5178 6.79263 27.351C6.90569 27.4927 7.45652 28.0767 7.56959 28.1259C9.4946 28.9963 12.0139 25.6305 12.8837 24.2542C10.6224 20.9723 6.80712 18.0808 7.30867 13.6625C7.68555 10.343 12.3647 9.42933 14.368 11.916C15.5885 10.6177 17.1309 10.077 18.8674 10.6611C20.0097 11.0457 21.2128 12.3642 21.3984 13.5613C22.0797 17.9506 18.0586 21.0475 15.7625 24.2484C16.9279 25.9312 19.6096 29.9186 21.755 27.4146C23.2335 25.6912 23.6481 21.4234 24.2134 19.1448C25.3151 14.7006 29.0144 4.92145 22.8537 2.55329C19.6154 1.30704 18.4152 3.00437 15.8959 4.00773C12.7706 5.25108 10.834 2.00968 7.54929 2.13113V2.13691H7.5464ZM11.034 12.5898C9.98455 12.7112 9.36124 13.6885 9.37574 14.6919C9.41343 17.115 12.904 20.6426 14.3651 22.5106C15.6842 20.7554 17.3976 19.1015 18.4674 17.1757C19.111 16.0191 19.8647 13.8967 18.5427 12.9223C16.8062 11.6413 15.8988 13.8187 14.8667 14.3594C13.5592 15.0447 12.6894 12.4018 11.0311 12.5927H11.034V12.5898Z" fill="#EB846D"/>
</g>
<defs>
<clipPath id="clip0_7_3049">
<rect width="178" height="31" fill="white"/>
</clipPath>
</defs>
</svg>
