<svg width="178" height="31" viewBox="0 0 178 31" fill="none" xmlns="http://www.w3.org/2000/svg">
<g clip-path="url(#clip0_7_2995)">
<path d="M40.6949 29.8376V0.945526C40.6949 0.558062 40.9529 0.34409 41.3414 0.34409H44.142C44.5304 0.34409 44.745 0.558062 44.745 0.945526V16.5106L56.5589 0.688181C56.7734 0.430835 57.0343 0.34409 57.3359 0.34409H60.7829C61.3424 0.34409 61.4729 0.688181 61.1279 1.11902L50.8679 14.1887L62.3339 29.667C62.6354 30.0978 62.4644 30.4419 61.9454 30.4419H58.7129C58.3679 30.4419 58.1534 30.3552 57.936 30.0545L48.453 17.2855L44.745 22.016V29.8405C44.745 30.228 44.5304 30.4419 44.142 30.4419H41.3414C40.9529 30.4419 40.6949 30.228 40.6949 29.8405V29.8376Z" fill="#161616"/>
<path d="M74.2348 29.8376V0.945526C74.2348 0.558062 74.4928 0.34409 74.8813 0.34409H77.6819C78.0703 0.34409 78.2849 0.558062 78.2849 0.945526V29.8376C78.2849 30.2251 78.0703 30.439 77.6819 30.439H74.8813C74.4928 30.439 74.2348 30.2251 74.2348 29.8376Z" fill="#161616"/>
<path d="M97.8162 29.8376V3.91223H91.5222C91.1338 3.91223 90.8757 3.69825 90.8757 3.31079V0.945526C90.8757 0.558062 91.1338 0.34409 91.5222 0.34409H108.12C108.508 0.34409 108.723 0.558062 108.723 0.945526V3.31079C108.723 3.69825 108.508 3.91223 108.12 3.91223H101.826V29.8376C101.826 30.2251 101.611 30.439 101.223 30.439H98.4221C98.0337 30.439 97.8191 30.2251 97.8191 29.8376H97.8162Z" fill="#161616"/>
<path d="M127.002 29.8376V3.91223H120.708C120.319 3.91223 120.061 3.69825 120.061 3.31079V0.945526C120.061 0.558062 120.319 0.34409 120.708 0.34409H137.305C137.694 0.34409 137.908 0.558062 137.908 0.945526V3.31079C137.908 3.69825 137.694 3.91223 137.305 3.91223H131.011V29.8376C131.011 30.2251 130.797 30.439 130.408 30.439H127.608C127.219 30.439 127.005 30.2251 127.005 29.8376H127.002Z" fill="#161616"/>
<path d="M147.093 15.5217C147.093 6.79218 153.903 0 162.568 0C171.233 0 178 6.79218 178 15.5217C178 24.2512 171.19 31 162.568 31C153.946 31 147.093 24.2078 147.093 15.5217ZM162.568 27.0878C169.033 27.0878 173.947 22.0999 173.947 15.5217C173.947 8.94348 169.033 3.91223 162.568 3.91223C156.103 3.91223 151.186 8.9001 151.186 15.5217C151.186 22.1433 156.1 27.0878 162.568 27.0878Z" fill="#161616"/>
<path d="M14.1767 26.1278C12.3734 29.1899 8.2016 32.4747 5.16912 28.84C3.20352 26.4834 2.9484 22.4498 2.21782 19.512C1.04947 14.8162 -1.14806 9.74732 0.73347 4.9127C2.54542 0.26313 7.25068 -1.12191 11.6718 0.919505C12.4256 1.26649 13.2982 2.05876 14.1042 2.1137C15.2957 2.19467 15.9538 1.38215 16.9366 0.922396C20.5605 -0.777818 24.6599 -0.19084 26.9502 3.25296C30.3074 8.29867 27.6141 14.5415 26.3095 19.8243C25.4542 23.2883 24.9962 30.7947 19.9343 30.3957C17.1483 30.1759 16.1249 27.9003 14.4898 26.2666C14.3825 26.1596 14.3738 26.0815 14.1767 26.1307V26.1278ZM7.5464 2.13684C5.34597 2.2178 3.5775 3.68669 2.80634 5.68762C1.20023 9.85431 3.23251 14.5935 4.2414 18.659C4.82992 21.0358 5.33147 25.5177 6.79263 27.3509C6.90569 27.4926 7.45652 28.0767 7.56959 28.1258C9.4946 28.9962 12.0139 25.6304 12.8837 24.2541C10.6224 20.9722 6.80712 18.0807 7.30867 13.6624C7.68555 10.343 12.3647 9.42925 14.368 11.916C15.5885 10.6177 17.1309 10.077 18.8674 10.661C20.0097 11.0456 21.2128 12.3641 21.3984 13.5612C22.0797 17.9506 18.0586 21.0474 15.7625 24.2483C16.9279 25.9312 19.6096 29.9186 21.755 27.4145C23.2335 25.6912 23.6481 21.4233 24.2134 19.1448C25.3151 14.7005 29.0144 4.92137 22.8537 2.55321C19.6154 1.30697 18.4152 3.00429 15.8959 4.00765C12.7706 5.251 10.834 2.00961 7.54929 2.13105V2.13684H7.5464ZM11.034 12.5897C9.98455 12.7111 9.36124 13.6885 9.37574 14.6918C9.41343 17.1149 12.904 20.6426 14.3651 22.5105C15.6842 20.7553 17.3976 19.1014 18.4674 17.1756C19.111 16.019 19.8647 13.8967 18.5427 12.9222C16.8062 11.6413 15.8988 13.8186 14.8667 14.3593C13.5592 15.0446 12.6894 12.4017 11.0311 12.5926H11.034V12.5897Z" fill="#EB846D"/>
</g>
<defs>
<clipPath id="clip0_7_2995">
<rect width="178" height="31" fill="white"/>
</clipPath>
</defs>
</svg>
