<svg viewBox="0 0 36 36" xmlns:xlink="http://www.w3.org/1999/xlink" xmlns="http://www.w3.org/2000/svg" aria-hidden="true" class="h-9 w-9" fill="none" width="36"  height="36" ><path opacity=".5" d="M8 17a1 1 0 0 1 1-1h18a1 1 0 0 1 1 1v2a1 1 0 0 1-1 1H9a1 1 0 0 1-1-1v-2Z" fill="#FFFFFF"></path><path opacity=".3" d="M8 24a1 1 0 0 1 1-1h18a1 1 0 0 1 1 1v2a1 1 0 0 1-1 1H9a1 1 0 0 1-1-1v-2Z" fill="#FFFFFF"></path><path d="M8 10a1 1 0 0 1 1-1h18a1 1 0 0 1 1 1v2a1 1 0 0 1-1 1H9a1 1 0 0 1-1-1v-2Z" fill="#FFFFFF"></path></svg>